# xmcd
#
# Track frame offsets: 
#        150
#        17212
#        50718
#        63562
#        81285
#        94177
#        112552
#        132776
#        148003
#        163336
#        179798
#        204038
#        222289
#        238582
#        256081
#
# Disc length: 3715 seconds
#
# Revision: 5
# Processed by: cddbd v1.5.2PL0 Copyright (c) Steve Scherf et al.
# Submitted via: ExactAudioCopy v1.0b3
#
DISCID=d50e810f
DTITLE=Various Artist - Uncut 2007.06 - The new frontier (Americana - The nex
DTITLE=t generation)
DYEAR=2007
DGENRE=Magazine compilation
TTITLE0=Lavender Diamond - Oh no
TTITLE1=Oakley Hall - If I was in El Dorado
TTITLE2=Rosie Thomas and Sufjan Stevens - The one I love
TTITLE3=Bob Frank and John Murry - Kid Curry, 1904
TTITLE4=Nina Nastasia and Jim White - The day I would bury you
TTITLE5=PG Six - Bless these blues
TTITLE6=Bright Eyes - Lua
TTITLE7=The Dexateens - Makers mound
TTITLE8=Stephanie Dosen - Vinalhaven harbor
TTITLE9=Robert Gomez - Closer still
TTITLE10=Lightning Dust - Castles and caves
TTITLE11=Josh Ritter - Wolves
TTITLE12=Richard Swift - Looking back, I should've been home more
TTITLE13=Blanche - I'm sure of it
TTITLE14=The Felice Brothers - Mercy
EXTD=YEAR: 2007
EXTT0=
EXTT1=
EXTT2=
EXTT3=
EXTT4=
EXTT5=
EXTT6=
EXTT7=
EXTT8=
EXTT9=
EXTT10=
EXTT11=
EXTT12=
EXTT13=
EXTT14=
PLAYORDER=
